<svg width="2410" height="1468" viewBox="0 0 2410 1468" fill="none" xmlns="http://www.w3.org/2000/svg">
<path d="M1507.71 2.28189C1766.09 20.5442 2005.03 110.02 2171.42 234.852C2331.16 354.697 2371.74 513.884 2396.48 669.07C2420.35 818.846 2423.92 973.531 2310.33 1106.27C2196.65 1239.11 1994.86 1331.02 1775.96 1394.18C1560.15 1456.45 1322.43 1483.65 1088.02 1458.93C851.769 1434.02 645.954 1355.3 466.508 1256.12C272.868 1149.09 81.9277 1029.52 25.8418 871.849C-32.7637 707.092 7.27944 525.385 156.54 384.706C299.711 249.766 568.178 205.027 804.224 138.218C1033.41 73.3503 1257.69 -15.3894 1507.71 2.28189Z" fill="white"/>
</svg>